<svg width="23" height="21" viewBox="0 0 23 21" fill="none" xmlns="http://www.w3.org/2000/svg">
<path d="M17.7168 21.0007C17.5589 21.0013 17.4049 20.9521 17.2766 20.8601L11.248 16.4895L5.21944 20.8601C5.09064 20.9535 4.93547 21.0035 4.77636 21.003C4.61726 21.0024 4.46246 20.9512 4.33434 20.8569C4.20623 20.7625 4.11144 20.6299 4.06368 20.4781C4.01592 20.3263 4.01766 20.1633 4.06865 20.0126L6.41991 13.0484L0.326154 8.86947C0.194159 8.77905 0.0945375 8.64879 0.0418439 8.49773C-0.0108497 8.34666 -0.0138533 8.1827 0.033272 8.02981C0.0803973 7.87691 0.175182 7.74309 0.303776 7.6479C0.432371 7.55271 0.588037 7.50114 0.748029 7.50072H8.26584L10.5346 0.518684C10.5835 0.367945 10.6788 0.236559 10.807 0.143376C10.9352 0.0501921 11.0896 0 11.248 0C11.4065 0 11.5609 0.0501921 11.6891 0.143376C11.8172 0.236559 11.9126 0.367945 11.9615 0.518684L14.2302 7.50306H21.748C21.9082 7.50298 22.0642 7.5542 22.1932 7.6492C22.3222 7.74421 22.4174 7.87802 22.4648 8.03103C22.5122 8.18404 22.5094 8.34822 22.4568 8.49952C22.4041 8.65081 22.3044 8.78128 22.1722 8.87181L16.0762 13.0484L18.426 20.0107C18.4641 20.1234 18.4748 20.2436 18.4572 20.3613C18.4397 20.479 18.3944 20.5908 18.3251 20.6875C18.2558 20.7842 18.1645 20.8631 18.0588 20.9175C17.953 20.972 17.8358 21.0005 17.7168 21.0007Z" fill="url(#paint0_linear_84_170)"/>
<defs>
<linearGradient id="paint0_linear_84_170" x1="2.74805" y1="1.50073" x2="17.748" y2="21.5007" gradientUnits="userSpaceOnUse">
<stop stop-color="#F84119"/>
<stop offset="1" stop-color="#F89F19" stop-opacity="0.68"/>
</linearGradient>
</defs>
</svg>
